<?xml version="1.0" encoding="iso-8859-1"?>
<!-- Generator: Adobe Illustrator 19.0.0, SVG Export Plug-In . SVG Version: 6.00 Build 0)  -->
<svg version="1.1" id="Layer_1" xmlns="http://www.w3.org/2000/svg" xmlns:xlink="http://www.w3.org/1999/xlink" x="0px" y="0px"
	 viewBox="0 0 512 512" style="enable-background:new 0 0 512 512;" xml:space="preserve">
<circle style="fill:#00D2FF;" cx="235.932" cy="296.789" r="208.505"/>
<path style="fill:#18BDF6;" d="M84.044,240.178c0-43.106,13.083-83.156,35.492-116.398
	c-55.563,37.455-92.107,100.966-92.107,173.013c0,115.154,93.351,208.505,208.505,208.505c72.049,0,135.56-36.545,173.013-92.107
	c-33.243,22.408-73.293,35.492-116.398,35.492C177.395,448.684,84.044,355.333,84.044,240.178z"/>
<path style="fill:#D2555A;" d="M107.112,7.518C76.109,7.576,51.024,32.756,51.082,63.76c0.09,48.117,56.301,88.109,56.301,88.109
	s56.059-41.205,55.971-88.319C163.295,32.546,138.115,7.46,107.112,7.518z M107.624,89.29c-14.394,0-26.063-11.669-26.063-26.063
	s11.669-26.063,26.063-26.063s26.063,11.669,26.063,26.063S122.017,89.29,107.624,89.29z"/>
<path style="fill:#FF6464;" d="M107.112,7.518c-5.246,0-12.721,15.977-16.734,36.174c4.595-4.06,10.63-6.528,17.244-6.528
	c14.394,0,26.063,11.669,26.063,26.063S122.016,89.29,107.623,89.29c-7.929,0-15.026-3.546-19.806-9.132
	c2.257,43.175,19.567,71.71,19.567,71.71s56.059-41.205,55.971-88.319C163.295,32.546,138.115,7.518,107.112,7.518z"/>
<path style="fill:#D2555A;" d="M428.297,223.44c-31.003,0.058-56.089,25.238-56.031,56.241c0.09,48.117,56.301,88.109,56.301,88.109
	s56.059-41.205,55.97-88.319C484.48,248.467,459.3,223.381,428.297,223.44z M428.401,305.815c-14.394,0-26.063-11.669-26.063-26.063
	s11.669-26.063,26.063-26.063s26.063,11.669,26.063,26.063S442.795,305.815,428.401,305.815z"/>
<path style="fill:#FF6464;" d="M428.893,223.616c-5.204,0-12.603,15.718-16.637,35.684c4.441-3.511,10.045-5.612,16.145-5.612
	c14.394,0,26.063,11.669,26.063,26.063s-11.669,26.063-26.063,26.063c-7.338,0-13.962-3.036-18.698-7.916
	c2.604,42.248,19.462,70.067,19.462,70.067s56.059-41.205,55.97-88.319C485.076,248.644,459.896,223.616,428.893,223.616z"/>
<path style="fill:#D2555A;" d="M179.815,288.063c-31.003,0.058-56.089,25.238-56.031,56.241
	c0.09,48.117,56.301,88.109,56.301,88.109s56.059-41.205,55.97-88.319C235.999,313.09,210.819,288.004,179.815,288.063z
	 M179.798,369.971c-14.394,0-26.063-11.669-26.063-26.063c0-14.394,11.669-26.063,26.063-26.063
	c14.394,0,26.063,11.669,26.063,26.063C205.862,358.301,194.192,369.971,179.798,369.971z"/>
<path style="fill:#FF6464;" d="M180.695,287.772c-5.171,0-12.512,15.52-16.564,35.308c4.362-3.286,9.786-5.236,15.667-5.236
	c14.394,0,26.063,11.669,26.063,26.063c0,14.394-11.669,26.063-26.063,26.063c-7.116,0-13.563-2.855-18.265-7.477
	c2.694,42.001,19.434,69.628,19.434,69.628s56.059-41.205,55.97-88.319C236.879,312.799,211.698,287.772,180.695,287.772z"/>
<path d="M424.098,386.295c-3.675-1.935-8.221-0.523-10.155,3.152c-0.517,0.983-1.044,1.961-1.576,2.933l-33.143,0.062
	c3.626-9.886,6.705-20.197,9.204-30.873c0.946-4.043-1.564-8.087-5.607-9.034c-4.045-0.944-8.088,1.566-9.034,5.608
	c-2.82,12.046-6.401,23.515-10.646,34.329l-62.52,0.117c4.307-27.425,6.708-57.743,6.987-89.229l40.644-0.076
	c4.152-0.008,7.512-3.38,7.504-7.532c-0.008-4.148-3.372-7.504-7.518-7.504c-0.005,0-0.01,0-0.015,0l-40.646,0.076
	c-0.442-33.288-3.401-66.944-8.754-97.22l60.557-0.114c3.743,8.464,7.07,17.384,9.935,26.719c0.992,3.236,3.969,5.315,7.184,5.315
	c0.731,0,1.474-0.107,2.208-0.333c3.97-1.218,6.2-5.423,4.982-9.393c-2.367-7.714-5.036-15.166-7.982-22.338l31.601-0.059
	c0.866,1.408,1.733,2.817,2.566,4.251c1.395,2.402,3.917,3.743,6.508,3.742c1.282,0,2.582-0.328,3.77-1.019
	c3.591-2.086,4.81-6.687,2.724-10.277c-1.066-1.834-2.165-3.646-3.284-5.446c-0.343-2.094-1.543-3.898-3.236-5.031
	c-18.219-27.589-42.622-50.808-71.201-67.579c-32.99-19.361-70.735-29.588-109.19-29.588c-0.059,0-0.118,0-0.178,0
	c-0.058,0-0.115,0-0.173,0c-0.018,0-0.037,0-0.055,0c-16.841,0.032-33.608,2.009-49.839,5.875c-4.039,0.962-6.534,5.017-5.572,9.056
	c0.962,4.041,5.017,6.53,9.056,5.572c5.598-1.334,11.266-2.423,16.981-3.271c-13.418,17.179-23.649,45.76-30.63,79.114
	l-66.322,0.124c-1.208-0.298-2.443-0.283-3.605,0.007l-31.272,0.059c2.172-2.938,4.419-5.827,6.758-8.651
	c2.649-3.198,2.204-7.937-0.993-10.587c-3.197-2.649-7.937-2.204-10.586,0.992c-5.185,6.258-9.984,12.79-14.399,19.549
	c-1.712,1.152-2.916,2.991-3.236,5.119c-20.825,33.935-32.036,73.285-31.959,113.469c0.108,57.703,22.68,111.908,63.559,152.633
	C124.283,489.643,178.406,512,235.955,512c0.061,0,0.124,0,0.186,0c0.06,0,0.119,0,0.178,0c0.018,0,0.035,0,0.053,0
	c80.305-0.151,153.445-44.427,190.877-115.55C429.183,392.775,427.772,388.229,424.098,386.295z M356.602,407.521
	c-20.6,43.022-52.455,73.465-88.995,84.682c7.959-11.083,15.088-26.715,21.189-46.679c3.55-11.613,6.629-24.328,9.215-37.894
	L356.602,407.521z M295.905,176.073c-6.803-32.058-16.5-59.205-28.924-76.387c34.047,10.382,64.242,37.494,85.065,76.282
	L295.905,176.073z M397.102,175.883l-28.173,0.053c-12.027-24.385-27.46-44.926-45.239-60.669
	C352.376,129.213,377.676,149.904,397.102,175.883z M201.69,138.356c10.115-27.539,22.47-43.344,33.898-43.366
	c0.008,0,0.016,0,0.023,0c13.156,0,27.458,20.815,38.26,55.691c2.464,7.953,4.697,16.46,6.7,25.422l-89.644,0.168
	C193.99,162.262,197.6,149.491,201.69,138.356z M95.876,191.485c-12.146,29.779-18.908,63.035-19.714,97.274l-41.046,0.077
	c1.231-34.466,11.346-68.019,29.131-97.291L95.876,191.485z M35.146,303.873l41.054-0.077c0.849,31.445,6.633,61.731,16.86,89.184
	l-33.176,0.062C44.876,365.912,36.363,335.543,35.146,303.873z M94.115,438.364c-9.414-9.379-17.78-19.527-25.049-30.302
	l30.17-0.057c6.474,14.377,14.229,27.824,23.204,40.057c8.147,11.105,17.033,20.853,26.503,29.187
	C128.876,467.596,110.354,454.542,94.115,438.364z M236.32,496.964c-11.038,0-23.114-14.888-33.134-40.849
	c-1.496-3.873-5.849-5.804-9.722-4.307c-3.873,1.495-5.802,5.847-4.306,9.721c4.848,12.561,10.213,22.862,15.995,30.815
	c-26.423-7.994-50.792-26.19-70.589-53.175c-7.067-9.633-13.331-20.084-18.752-31.194h0.073c4.152-0.008,7.512-3.38,7.504-7.532
	c-0.008-4.148-3.372-7.504-7.518-7.504c-0.005,0-0.01,0-0.015,0l-6.693,0.013c-10.861-27.14-17.028-57.501-17.924-89.182
	l16.43-0.031c4.152-0.008,7.512-3.38,7.504-7.532c-0.008-4.148-3.372-7.504-7.518-7.504c-0.005,0-0.01,0-0.015,0l-16.437,0.031
	c0.858-34.5,8.073-67.877,21.009-97.276l60.467-0.113c-3.573,20.534-5.999,42.402-7.265,64.219c-0.241,4.145,2.924,7.701,7.07,7.941
	c4.135,0.243,7.701-2.924,7.941-7.07c1.339-23.072,3.9-45.1,7.508-65.119l95.698-0.179c5.391,29.219,8.466,62.441,8.912,97.22
	l-40.552,0.076c-4.152,0.008-7.512,3.38-7.504,7.532c0.008,4.148,3.372,7.504,7.518,7.504c0.005,0,0.01,0,0.015,0l40.552-0.076
	c-0.287,31.636-2.75,61.995-7.168,89.229l-33.217,0.062c-4.152,0.008-7.512,3.38-7.504,7.532c0.008,4.148,3.372,7.504,7.518,7.504
	c0.005,0,0.01,0,0.015,0l30.48-0.057c-2.365,11.947-5.128,23.168-8.277,33.469c-10.678,34.938-24.911,55.81-38.074,55.834
	C236.337,496.964,236.328,496.964,236.32,496.964z M323.636,476.905c2.892-2.562,5.735-5.253,8.522-8.084
	c16.657-16.924,30.485-37.691,40.979-61.331l30.125-0.056C383.128,437.673,355.523,461.469,323.636,476.905z"/>
<path d="M103.025,157.994c1.305,0.929,2.832,1.392,4.359,1.392c1.565,0,3.13-0.487,4.453-1.461
	c2.415-1.775,59.13-44.043,59.036-94.391C170.807,28.502,142.252,0,107.22,0h-0.121c-35.099,0.066-63.6,28.675-63.534,63.774
	C43.66,115.169,100.601,156.27,103.025,157.994z M107.22,15.036c26.757,0,48.566,21.769,48.617,48.526
	c0.066,35.316-35.813,68.215-48.518,78.754c-12.755-10.307-48.65-42.517-48.717-78.57C58.551,36.939,80.319,15.088,107.22,15.036z"
	/>
<path d="M107.277,95.231c8.434-0.016,16.358-3.315,22.311-9.291c5.952-5.975,9.222-13.911,9.206-22.345
	c-0.008-4.148-3.372-7.504-7.518-7.504c-0.005,0-0.01,0-0.015,0c-4.152,0.008-7.512,3.38-7.504,7.532
	c0.008,4.419-1.704,8.576-4.823,11.705c-3.119,3.13-7.268,4.859-11.686,4.866c-4.409,0.005-8.574-1.703-11.704-4.823
	c-3.13-3.118-4.858-7.269-4.866-11.686c-0.016-9.119,7.389-16.553,16.51-16.571c4.153-0.008,7.512-3.38,7.504-7.533
	c-0.008-4.147-3.372-7.503-7.518-7.503c-0.005,0-0.01,0-0.015,0c-17.411,0.033-31.549,14.224-31.516,31.636
	c0.016,8.434,3.315,16.358,9.291,22.311c5.96,5.938,13.872,9.206,22.282,9.206C107.236,95.231,107.257,95.231,107.277,95.231z"/>
<path d="M428.403,215.921h-0.121c-35.099,0.066-63.6,28.674-63.534,63.774c0.097,51.396,57.038,92.495,59.462,94.22
	c1.305,0.929,2.832,1.392,4.359,1.392c1.565,0,3.13-0.487,4.453-1.461c2.415-1.775,59.13-44.043,59.036-94.391
	C491.99,244.423,463.436,215.921,428.403,215.921z M428.502,358.238c-12.755-10.307-48.65-42.517-48.718-78.57
	c-0.05-26.808,21.719-48.659,48.619-48.71c26.757,0,48.567,21.769,48.617,48.526C477.087,314.8,441.208,347.699,428.502,358.238z"/>
<path d="M452.461,272.013c-0.005,0-0.01,0-0.015,0c-4.152,0.008-7.512,3.38-7.504,7.532c0.017,9.12-7.389,16.554-16.509,16.571
	c-0.011,0-0.021,0-0.031,0c-9.105,0-16.523-7.4-16.54-16.509c-0.008-4.419,1.704-8.576,4.823-11.705
	c3.118-3.13,7.268-4.859,11.685-4.866c4.152-0.008,7.512-3.38,7.504-7.532c-0.008-4.148-3.372-7.504-7.518-7.504
	c-0.005,0-0.01,0-0.014,0c-8.434,0.016-16.358,3.315-22.311,9.291c-5.952,5.975-9.222,13.912-9.206,22.345
	c0.033,17.392,14.191,31.518,31.577,31.517c0.019,0,0.04,0,0.059,0c17.411-0.033,31.55-14.224,31.517-31.636
	C459.971,275.369,456.606,272.013,452.461,272.013z"/>
<path d="M179.922,280.544H179.8c-35.099,0.066-63.601,28.676-63.535,63.774c0.097,51.396,57.038,92.495,59.462,94.22
	c1.305,0.929,2.832,1.392,4.359,1.392c1.565,0,3.13-0.487,4.453-1.461c2.415-1.775,59.13-44.043,59.036-94.391
	C243.509,309.046,214.955,280.544,179.922,280.544z M180.02,422.861c-12.755-10.307-48.65-42.517-48.718-78.57
	c-0.05-26.808,21.719-48.659,48.619-48.71c26.757,0,48.566,21.769,48.617,48.526C228.605,379.423,192.726,412.321,180.02,422.861z"
	/>
<path d="M203.979,336.635c-0.005,0-0.01,0-0.015,0c-4.152,0.008-7.512,3.38-7.504,7.532c0.008,4.419-1.704,8.576-4.823,11.705
	c-3.118,3.13-7.268,4.859-11.686,4.866c-0.011,0-0.021,0-0.033,0c-4.406,0-8.55-1.712-11.671-4.823
	c-3.131-3.118-4.859-7.269-4.867-11.686c-0.017-9.12,7.389-16.554,16.509-16.571c4.153-0.008,7.512-3.38,7.504-7.533
	c-0.008-4.147-3.372-7.503-7.518-7.503c-0.005,0-0.01,0-0.015,0c-17.411,0.033-31.55,14.224-31.517,31.636
	c0.016,8.434,3.315,16.358,9.291,22.311c5.96,5.939,13.872,9.207,22.283,9.207c0.021,0,0.042,0,0.062,0
	c8.434-0.016,16.358-3.315,22.311-9.291c5.953-5.975,9.222-13.911,9.207-22.345C211.489,339.992,208.125,336.635,203.979,336.635z"
	/>
<g>
</g>
<g>
</g>
<g>
</g>
<g>
</g>
<g>
</g>
<g>
</g>
<g>
</g>
<g>
</g>
<g>
</g>
<g>
</g>
<g>
</g>
<g>
</g>
<g>
</g>
<g>
</g>
<g>
</g>
</svg>
